<svg width="202" height="202" viewBox="0 0 202 202" fill="none" xmlns="http://www.w3.org/2000/svg">
<circle cx="101" cy="101" r="101" fill="#A80929"/>
<path d="M97.4355 78C81.2171 78 68.1035 91.1463 68.1035 107.214C68.1035 123.467 81.2171 136.612 97.4355 136.612C113.654 136.612 126.769 123.467 126.769 107.214C126.769 91.1469 113.654 78 97.4355 78Z" fill="white"/>
<path d="M54.2731 100.628C51.0909 100.628 48.3744 98.0718 47.2877 94.6026C45.9694 94.6026 44.6505 94.6026 44.6505 94.6026C43.9508 94.6026 42.9434 93.6901 42.9434 91.316C42.9434 88.76 43.9508 87.8462 44.6505 87.8462C44.6505 87.8462 45.9694 87.8462 47.2877 87.8462C48.3744 84.377 51.0909 81.8203 54.2731 81.8203H79.8811C73.6723 86.2026 69.0945 92.5938 67.3867 100.263C61.6441 100.447 57.2998 100.628 54.2731 100.628Z" fill="white"/>
<path d="M99.3721 115.436V131.139C106.743 130.593 113.185 126.574 117.22 120.914L103.486 113.063C102.399 114.157 101.001 115.071 99.3721 115.436Z" fill="#A80929"/>
<path d="M95.4948 83.2734C88.1219 84.0039 81.6821 87.8384 77.7241 93.6817L91.3808 101.533C92.4681 100.255 93.8638 99.5243 95.4942 99.1597" fill="#A80929"/>
<path d="M97.4341 103.008C95.1078 103.008 93.1665 104.834 93.1665 107.207C93.1665 109.582 95.1078 111.59 97.4341 111.59C99.8397 111.59 101.703 109.582 101.703 107.207C101.703 104.834 99.8397 103.008 97.4341 103.008Z" fill="#A80929"/>
<path d="M99.3721 83.2734V99.1597C101.001 99.5243 102.476 100.255 103.562 101.533L117.22 93.6817C113.185 87.8384 106.744 84.0039 99.3721 83.2734Z" fill="#A80929"/>
<path d="M95.4948 115.436C94.1747 115.071 93.0118 114.524 92.0018 113.609C91.8477 113.426 91.6149 113.244 91.3808 113.063L77.7241 120.914C78.0343 121.462 78.3452 121.826 78.7328 122.193C82.6895 127.306 88.7423 130.593 95.4948 131.139" fill="#A80929"/>
<path d="M105.418 109.585L119.154 117.617C121.791 111.959 122.568 104.106 119.154 96.9854L105.495 104.837C105.885 106.298 105.962 107.94 105.418 109.585Z" fill="#A80929"/>
<path d="M79.9653 93.1367L91.139 99.5265C91.9929 98.9799 92.9235 98.4321 93.9335 97.8836V85.1025C88.4231 86.0144 83.4577 88.7544 79.9653 93.1367Z" fill="white"/>
<path d="M100.919 85.1025V98.0656C101.927 98.4321 102.858 98.9793 103.712 99.5265L114.887 93.1367C111.395 88.7544 106.427 86.0144 100.919 85.1025Z" fill="white"/>
<path d="M119.774 105.03C119.618 103.022 119.153 101.014 118.376 99.1875L107.203 105.579C107.28 106.127 107.357 106.674 107.357 107.221C107.357 107.405 107.357 107.77 107.357 107.951C110.462 107.04 113.798 106.309 117.213 105.579C117.989 105.397 118.921 105.214 119.774 105.03Z" fill="white"/>
<path d="M100.139 107.2C100.139 105.739 98.974 104.462 97.4229 104.462C95.9485 104.462 94.707 105.74 94.707 107.2C94.707 108.845 95.9485 109.939 97.4229 109.939C98.974 109.939 100.139 108.845 100.139 107.2Z" fill="white"/>
<path d="M75.6924 96.9854C72.5883 103.741 72.7431 111.228 75.7692 117.617L89.4277 109.585C88.9621 108.124 88.9621 106.479 89.4277 104.837" fill="#A80929"/>
<path d="M76.5594 115.438L87.6563 108.866C87.5002 107.769 87.5002 106.674 87.6563 105.578L76.482 99.1875C74.464 104.482 74.464 110.143 76.5594 115.438Z" fill="white"/>
<path d="M72.4994 124.897C70.0064 123.027 67.825 116.327 67.046 113.211C62.6833 121.313 46.5309 129.052 39 131.909L42.1162 135.804C46.4789 136.427 64.1894 128.792 72.4994 124.897Z" fill="white"/>
<path d="M173 82.0547H116.908C123.141 83.9245 127.815 96.857 129.373 103.09L139.501 100.752C140.124 100.752 142.877 98.1555 144.175 96.857L170.663 95.2989L173 82.0547Z" fill="white"/>
</svg>
