<svg width="202" height="202" viewBox="0 0 202 202" fill="none" xmlns="http://www.w3.org/2000/svg">
<rect width="202" height="202" rx="101" fill="#144893"/>
<path d="M105.738 50.5C105.667 50.5 105.595 50.5275 105.511 50.5565C103.963 50.8823 99.2124 54.1423 100.947 56.4927C99.5232 56.6605 96.2182 55.688 94.0863 60.0262C96.7647 59.5235 97.6583 61.89 97.6583 62.7399C97.6583 65.9591 95.1501 67.2503 93.0657 67.2627C91.6704 67.2662 90.4739 66.6996 90.3442 65.7362C90.3502 65.7078 90.3375 65.6801 90.3442 65.6514C90.3424 65.6487 90.3158 65.655 90.3158 65.6514H90.2591C88.5969 67.4002 89.6067 71.045 92.2436 71.9551C92.2436 71.9551 91.2121 75.9703 88.6999 78.5132C86.1989 78.4163 82.7072 78.077 79.6282 76.9019C78.7663 76.575 77.9505 76.1647 77.1902 75.6864C76.6033 75.3237 76.0404 74.9353 75.5459 74.4709C74.0623 73.0729 72.8911 72.3139 71.8889 71.9268V70.0894C73.3584 69.3707 74.9769 68.1117 76.6515 65.9906C77.96 64.4013 78.657 62.3639 78.4659 60.1958C78.4455 59.9367 78.404 59.6861 78.3525 59.4325C78.3409 59.3536 78.3126 59.2853 78.2958 59.2064C78.2574 59.0318 78.2327 58.8371 78.1824 58.6693C78.1596 58.5837 78.1273 58.4998 78.0973 58.4149C78.0422 58.2419 77.9636 58.0986 77.8989 57.9344C77.8701 57.8646 77.8709 57.7772 77.8422 57.7082C77.7466 57.4914 77.6407 57.2908 77.5303 57.0863C77.4863 56.9991 77.4346 56.9152 77.3886 56.8319C77.3114 56.7068 77.2138 56.586 77.1335 56.4645C77.0667 56.3672 77.0066 56.2786 76.935 56.1818C76.8643 56.0889 76.7838 55.9884 76.7082 55.8991C76.6275 55.7935 76.569 55.687 76.4814 55.5882C76.4246 55.5228 76.3441 55.4525 76.283 55.3903C76.0631 55.1531 75.8481 54.9207 75.6026 54.7119C75.5778 54.692 75.542 54.6729 75.5176 54.6553C75.3796 54.5397 75.2406 54.4214 75.0923 54.3161C75.0531 54.2906 75.0173 54.2576 74.9789 54.2313C74.8222 54.1201 74.6625 54.0228 74.497 53.9204C74.4874 53.9159 74.4778 53.9239 74.4686 53.9204C72.9023 52.9589 71.0248 52.4642 69.0256 52.6201C68.595 52.6544 68.1596 52.7306 67.7499 52.8179C63.5875 53.7376 60.6637 57.4233 61.0311 61.5809C61.3425 65.1027 63.9003 67.9093 67.2679 68.8456C67.3023 68.8552 67.3453 68.8651 67.3813 68.8739C66.1784 69.542 65.1736 69.9198 64.9433 69.9198C64.9825 69.9445 65.0303 69.9963 65.0851 70.0329C65.099 70.0392 65.1257 70.0241 65.1418 70.0329C65.1901 70.0608 65.2227 70.1137 65.2835 70.146C65.2983 70.1541 65.3234 70.1404 65.3402 70.146C65.4121 70.1842 65.4798 70.2446 65.567 70.2873C65.583 70.2918 65.6113 70.3068 65.6237 70.3156C65.7001 70.3515 65.7897 70.3637 65.8788 70.4004C65.9032 70.4108 65.9091 70.4187 65.9355 70.4286C66.1494 70.5128 66.3836 70.6105 66.6443 70.683C66.6803 70.6912 66.7209 70.701 66.7577 70.7113C66.8588 70.7376 66.96 70.7451 67.0695 70.7678C67.1062 70.7778 67.1442 70.7877 67.1829 70.7961C67.3208 70.8224 67.459 70.8629 67.6081 70.8809C67.6186 70.8809 67.6544 70.8737 67.6648 70.8809V71.8985C67.616 71.9058 67.5475 71.9169 67.4947 71.9268C65.932 72.1819 64.9203 72.6824 64.4614 74.0751C64.004 75.4707 64.4653 75.9794 65.1985 76.9584C64.5744 78.059 62.9699 78.474 65.0851 80.9159C64.9347 81.8355 65.1305 83.2966 66.4742 83.7427C66.9143 83.8909 67.2807 83.9568 67.6648 84.0253V102.314C66.3216 103.024 65.6469 103.921 65.2835 104.745C65.2835 104.745 62.7156 104.402 62.7888 109.127C64.0117 108.175 65.0284 108.166 65.0284 108.166C63.3641 110.316 64.5464 112.293 64.5464 112.293C65.9812 110.86 66.6159 110.851 66.6159 110.851C66.6159 113.395 67.6648 114.385 67.6648 114.385V128.321H66.4458V130.101V132.165H68.572C68.3118 132.273 68.0772 132.419 67.8633 132.589C67.1269 133.148 66.6742 134.011 66.701 134.963V135.133C66.8473 136.778 68.3695 138.017 70.1029 137.875C71.8311 137.74 73.1088 136.294 72.9661 134.653C72.865 133.522 72.1209 132.591 71.0951 132.165H73.0512V128.321H71.8889V115.939C72.1327 116.065 72.3764 116.167 72.6543 116.222C72.7734 116.249 72.9073 116.265 73.0228 116.279C73.0736 116.279 73.1138 116.277 73.1646 116.279C72.8492 114.654 73.8166 113.593 73.8166 113.593C74.3207 112.841 75.0382 112.254 75.8577 111.841C78.3223 110.608 81.6861 110.911 82.6899 112.915C89.0511 111.245 94.5115 104.887 94.5115 104.887L97.6583 110.173C91.0185 112.389 76.5658 124.937 86.6021 129.282C86.5975 130.541 86.4214 139.912 80.3936 139.175C71.7102 138.104 69.5418 141.677 71.2085 145.705C70.4217 149.106 73.0512 150.284 73.0512 150.284C72.659 148.325 73.6014 146.706 77.1902 146.723C77.1709 150.301 79.4864 150.963 79.4864 150.963C79.4989 147.894 81.6403 146.74 83.5404 146.751C83.5279 149.277 86.4603 150.256 86.4603 150.256C86.4603 150.256 85.71 147.326 89.0401 146.751C97.4581 145.288 89.5575 136.668 102.364 134.285C102.364 134.285 95.9857 133.327 95.9857 129.847C95.9857 126.688 101.741 124.533 103.725 124.533C103.727 124.537 103.751 124.528 103.753 124.533C107.829 132.263 112.263 132.332 113.42 132.391C115.224 134.397 114.609 141.177 112.003 141.041C102.464 140.534 102.798 146.331 103.867 147.514C103.748 149.764 105.511 151.048 105.511 151.048C105.511 148.639 107.81 147.981 110.756 148.136C110.597 151.074 112.485 151.5 112.485 151.5C112.529 148.54 114.721 148.054 116.284 148.136C116.174 150.215 118.24 150.822 118.24 150.822C118.24 150.822 118.042 148.196 120.819 148.193C126.094 148.193 118.433 136.918 128.729 125.777C119.69 129.95 114.866 119.524 114.866 117.522C119.513 122.945 134.597 124.01 134.597 114.752C134.597 107.283 127.643 103.765 128.219 100.816C128.324 100.275 128.674 99.7603 129.381 99.2333C132.038 97.2641 137.256 101.24 134.285 105.339C138.563 103.757 140.948 99.6149 139.643 96.1521C138.327 92.6865 133.791 91.1814 129.523 92.7883C127.735 93.4611 126.292 94.5767 125.299 95.8977C128.114 87.8715 139.615 86.1816 139.615 78.711C139.615 66.1947 121.769 69.6986 124.363 78.711C124.363 78.5755 124.375 78.4456 124.391 78.3153C124.417 78.0816 124.466 77.8734 124.533 77.6651C125.536 74.5411 130.912 74.3207 130.912 78.711C130.912 83.5503 119.515 86.7294 119.515 94.9083C119.515 103.921 128.566 104.732 127.652 112.971C127.497 114.398 125.958 116.279 123.739 116.279C118.982 116.279 116.43 114.262 114.951 111.417C112.13 105.982 113.167 97.5087 109.99 94.1168L110.245 90.6117C113.044 92.3237 120.479 88.3231 115.603 82.2162C115.603 85.2226 109.31 85.0328 109.31 79.3612C109.31 71.6837 116.501 75.717 116.851 77.4107C116.505 74.6164 116.378 72.8254 116.851 71.2201C112.966 72.4642 112.597 70.2223 113.08 69.3545C113.649 68.3515 114.406 67.1779 115.915 67.1779C118.097 67.1779 117.958 67.9752 117.843 69.1001C118.676 67.8436 118.909 66.9202 120.848 65.0295L120.82 63.6161L121.953 64.0119L123.031 62.2593C121.861 59.8377 120.266 61.024 119.09 58.0192C118.116 57.764 105.294 56.567 105.738 50.5ZM69.5642 58.8107C70.7591 58.7154 71.8153 59.5661 71.9172 60.7046C72.0164 61.8375 71.1297 62.8433 69.9328 62.9377C68.7335 63.0338 67.6753 62.1811 67.5798 61.0438C67.5534 60.742 67.5913 60.4644 67.6932 60.1958C67.6932 60.1894 67.6905 60.1699 67.6932 60.1675C67.7048 60.1269 67.7367 60.0944 67.7499 60.0544C68.063 59.386 68.7414 58.877 69.5642 58.8107ZM90.2591 67.1213C90.3335 67.5605 90.4949 67.9508 90.7127 68.3086C90.4953 67.9504 90.3327 67.5611 90.2591 67.1213ZM126.83 74.8384C126.312 75.1147 125.826 75.4811 125.44 75.9125C125.829 75.474 126.305 75.1179 126.83 74.8384ZM71.8889 84.9864C72.712 85.0654 74.8385 85.3741 77.3319 86.3998C77.3607 86.4137 77.3922 86.4118 77.4169 86.4281C79.8148 87.7914 79.7669 90.5305 76.6799 91.177C78.6491 94.9468 85.5098 93.1141 86.999 90.0463C87.725 89.9817 88.3474 91.2798 88.9551 92.5056C87.9976 93.0031 86.0562 93.9749 81.8678 96.4348C78.4597 98.4351 76.1586 100.956 73.0512 102.06C72.5778 102.231 72.2135 102.276 71.8889 102.258V84.9864ZM66.3891 104.943C66.3022 105.006 66.2246 105.098 66.1623 105.169C66.2316 105.085 66.2868 105.015 66.3891 104.943ZM63.8944 106.95C63.5804 107.303 63.2957 107.671 63.1006 108.053C63.2927 107.677 63.5865 107.298 63.8944 106.95ZM130.912 112.576C130.927 112.813 130.94 113.062 130.94 113.311C130.94 113.433 130.909 113.61 130.883 113.819C130.909 113.61 130.912 113.433 130.912 113.311C130.912 113.053 130.928 112.821 130.912 112.576ZM129.948 116.279C129.838 116.431 129.714 116.584 129.579 116.731C129.709 116.589 129.842 116.426 129.948 116.279ZM68.5437 132.448C68.6773 132.448 68.8146 132.479 68.9405 132.504C68.8146 132.479 68.6773 132.476 68.5437 132.476C68.4239 132.476 68.3159 132.482 68.2035 132.504C68.3159 132.482 68.4245 132.448 68.5437 132.448Z" fill="white"/>
</svg>
