<svg width="200" height="200" viewBox="0 0 200 200" fill="none" xmlns="http://www.w3.org/2000/svg">
<rect width="200" height="200" rx="100" fill="#E51B24"/>
<path d="M73.6025 69.6689C74.01 69.6871 74.4267 69.6871 74.8433 69.7418C75.8668 69.8786 76.5913 70.5259 77.2434 71.246C77.4518 71.474 77.642 71.5469 77.9046 71.4193C78.5658 71.082 79.2269 70.7355 79.8609 70.4073C80.0964 71.4193 78.8737 73.1605 77.2253 73.7986C76.1475 74.218 75.1422 73.9992 74.2365 73.3337C73.367 72.6955 72.896 71.7566 72.4613 70.772C72.1714 70.9908 71.9179 71.2005 71.6461 71.3919C71.1571 71.7383 70.7585 72.0574 70.9216 72.8232C71.0846 73.5889 70.6136 74.2453 70.0521 74.7741C69.8166 75.002 69.5449 75.2025 69.3003 75.4304C68.5667 76.1051 67.9871 76.8435 68.4852 77.9283C66.8006 78.2018 65.5235 76.807 65.8043 75.0567C65.9673 74.0539 66.6013 73.3975 67.3531 72.8505C68.0686 72.3218 68.8565 71.9115 69.6083 71.4284C70.1245 71.0911 70.6317 70.7355 71.1299 70.3709C71.2657 70.2706 71.3654 70.1156 71.5193 69.9424C70.8401 69.6507 70.2695 69.9424 69.7351 70.143C69.1464 70.3618 68.612 70.7173 68.0505 71.009C66.6647 71.7201 65.279 71.7383 63.9204 70.9634C63.4223 70.6808 63.223 70.2068 63.3498 69.6689C64.328 70.225 65.1341 69.6507 65.9673 69.2496C66.4564 69.0125 66.9274 68.7299 67.4255 68.5203C69.0467 67.8456 70.5683 67.955 71.936 69.1675C71.9812 69.204 72.0265 69.2313 72.1714 69.3316C72.7511 68.4564 73.3217 67.5904 73.9285 66.6605C73.5934 66.5238 73.3398 66.4417 73.1043 66.3232C72.8417 66.1865 72.5518 66.0497 72.3616 65.8401C72.2439 65.7033 72.2167 65.4116 72.262 65.211C72.2801 65.1199 72.57 65.0652 72.742 65.0469C73.2221 65.0014 73.7021 64.9922 74.1821 64.9649C74.4538 64.9467 74.6259 64.8464 74.6803 64.5455C74.8433 63.7342 75.0244 62.9319 75.2146 62.0385C73.213 62.0932 71.5103 62.6767 69.6989 63.4425C69.8075 63.0596 69.8528 62.7587 69.9615 62.4761C70.4234 61.3092 71.311 60.5526 72.416 60.0512C73.1858 59.7048 73.9829 59.4404 74.8161 59.1213C74.7256 58.2188 74.2184 57.4804 73.7293 56.7328C74.3361 56.6143 74.9158 56.4867 75.5045 56.4138C75.6222 56.3955 75.8486 56.5232 75.8939 56.6417C76.1566 57.2707 76.3649 57.918 76.6185 58.547C76.6728 58.6746 76.8178 58.8569 76.9083 58.8569C78.0042 58.8296 79.1001 58.7749 80.1779 58.7202C80.2051 58.6564 80.2413 58.6199 80.2323 58.6017C79.7613 57.526 80.2504 56.7511 81.4822 56.1312C82.4332 55.6571 83.4657 55.6936 84.4982 55.7209C87.315 55.803 89.9234 56.7784 92.55 57.6262C94.932 58.392 97.2959 59.1942 99.7866 59.5407C101.136 59.7321 102.404 59.5315 103.482 58.629C103.627 58.5105 103.708 58.3191 103.826 58.1732C103.889 58.0821 103.98 57.9271 104.034 57.9362C104.152 57.9544 104.297 58.0456 104.342 58.1459C104.415 58.3008 104.451 58.5014 104.442 58.6746C104.388 59.413 104.125 60.0512 103.591 60.5799C102.44 61.7286 100.991 62.1844 99.4515 62.4123C98.1292 62.6038 96.8068 62.5582 95.5026 62.2665C95.2128 62.2026 94.9048 62.23 94.6059 62.2391C94.5335 62.2391 94.4248 62.3211 94.4157 62.385C94.4067 62.4488 94.4882 62.5308 94.5335 62.6038C94.5516 62.622 94.5878 62.6311 94.615 62.6493C96.7525 63.5974 97.8212 66.5147 97.4136 68.8393C97.1329 70.4529 96.4536 71.8751 95.4482 73.124C93.9085 75.0476 92.3235 76.9438 90.7114 78.8035C88.755 81.0643 86.8621 83.3525 85.5307 86.0601C84.3442 88.4759 83.6378 91.0285 83.8008 93.7634C83.8551 94.6021 83.9729 95.459 84.1812 96.2704C84.2899 96.7171 84.5797 97.1547 84.8876 97.5011C85.3496 98.0116 85.8568 97.9752 86.3458 97.4829C87.0704 96.7536 87.4418 95.8146 87.6954 94.8482C88.4652 91.9948 89.1083 89.1141 89.9596 86.288C90.8472 83.3161 92.3054 80.6359 94.3433 78.2656C96.526 75.7222 99.1164 73.6436 101.589 71.4284C104.197 69.0855 106.887 66.8246 109.342 64.3267C112.901 60.7076 116.026 56.7055 118.263 52.0926C119.169 50.2238 119.984 48.3093 120.274 46.2308C120.509 44.5443 120.174 42.9398 119.305 41.463C119.214 41.308 119.115 41.0163 119.178 40.9525C119.305 40.8339 119.54 40.7884 119.739 40.7792C119.93 40.7792 120.129 40.8339 120.301 40.916C122.62 42.0464 124.051 43.7967 124.141 46.4952C124.25 49.7315 123.235 52.6396 121.632 55.3836C119.739 58.629 117.357 61.5098 114.785 64.2265C111.633 67.5539 108.029 70.3618 104.578 73.3428C102.44 75.1934 100.312 77.0532 98.419 79.159C95.575 82.3042 93.6912 85.9689 92.4685 90.0166C91.9703 91.6666 91.4812 93.3258 90.9287 94.9576C90.177 97.1729 88.9181 98.9871 86.7534 100.035C86.5904 100.117 86.527 100.409 86.4183 100.601C86.6266 100.683 86.844 100.847 87.0342 100.829C88.5196 100.664 89.7241 99.8987 90.8019 98.9141C92.6315 97.2458 93.6731 95.0944 94.4791 92.7971C94.9501 91.4661 95.4845 90.1533 96.0007 88.8223C96.8974 86.5068 98.4099 84.6562 100.366 83.1976C102.812 81.3743 105.311 79.624 107.802 77.8645C111.706 75.1114 115.573 72.3127 119.051 69.0217C126.396 62.0568 131.731 53.7974 134.756 44.0611C135.544 41.5268 136.214 38.9651 136.395 36.3031C136.414 36.0661 136.368 35.8108 136.405 35.5738C136.432 35.4097 136.495 35.2 136.622 35.118C136.703 35.0633 136.966 35.1545 137.057 35.2547C137.482 35.7379 137.935 36.2211 138.27 36.768C139.738 39.1748 139.955 41.7182 139.14 44.4167C138.297 47.2063 137.066 49.8044 135.689 52.3479C131.324 60.3885 125.473 67.171 118.426 72.9417C114.559 76.1051 110.383 78.8126 106.217 81.5475C105.474 82.0398 104.741 82.5412 104.007 83.0517C103.88 83.1429 103.817 83.3161 103.726 83.4619C103.917 83.4893 104.116 83.5805 104.279 83.5349C106.607 82.8694 108.78 81.8392 110.954 80.8C111.534 80.5265 111.833 80.6997 111.851 81.3561C111.887 82.7509 111.217 83.8448 110.257 84.7473C108.617 86.2698 106.643 87.2179 104.587 88.0019C103.699 88.3392 102.803 88.6309 101.906 88.9591C101.707 89.032 101.526 89.1597 101.344 89.2691C101.353 89.3237 101.353 89.3693 101.363 89.424C101.553 89.4605 101.743 89.5608 101.924 89.5334C104.967 89.0867 107.884 88.2116 110.728 87.0629C110.936 86.9809 111.289 86.9262 111.416 87.0355C111.561 87.1632 111.615 87.5187 111.552 87.7375C111.316 88.6491 110.8 89.4058 110.094 90.0348C108.934 91.065 107.558 91.7122 106.108 92.1954C104.687 92.6786 103.228 93.0432 101.788 93.4808C101.607 93.5355 101.453 93.6814 101.326 93.8637C104.551 94.2466 107.603 93.3167 110.728 92.8244C110.918 93.4717 110.592 93.9184 110.266 94.3742C108.436 96.9359 105.692 97.6561 102.821 98.121C102.422 98.1848 102.006 98.1757 101.607 98.2486C101.462 98.276 101.335 98.431 101.2 98.5312C101.326 98.6133 101.435 98.7409 101.58 98.7774C103.509 99.1876 105.465 99.1876 107.431 99.0782C107.585 99.0691 107.73 99.0418 107.884 99.0509C108.047 99.0691 108.327 99.0873 108.346 99.1694C108.391 99.3335 108.364 99.5979 108.255 99.7164C107.73 100.318 107.232 100.965 106.616 101.458C105.103 102.643 103.31 103.08 101.435 103.235C101.326 103.244 101.218 103.226 101.118 103.254C101.009 103.29 100.91 103.372 100.801 103.436C100.864 103.545 100.901 103.7 101 103.755C101.661 104.12 102.314 104.502 103.002 104.794C107.449 106.681 112.086 107.566 116.914 107.456C117.068 107.456 117.321 107.529 117.357 107.638C117.403 107.766 117.312 108.003 117.203 108.103C115.075 110.155 112.63 111.659 109.641 111.923C107.53 112.115 105.474 111.65 103.491 110.911C100.765 109.899 98.4009 108.304 96.2634 106.353C95.575 105.724 94.9501 105.022 94.2708 104.375C94.144 104.256 93.9267 104.229 93.7455 104.156C93.7002 104.366 93.5553 104.621 93.6368 104.767C94.135 105.66 94.6241 106.572 95.2128 107.401C96.8521 109.681 98.9534 111.513 101.046 113.345C102.948 115.004 104.859 116.645 106.688 118.396C109.758 121.322 111.516 124.978 112.159 129.171C112.53 131.587 112.403 133.985 111.642 136.318C111.57 136.546 111.461 136.765 111.316 136.957C111.244 137.057 111.017 137.157 110.954 137.112C110.845 137.039 110.764 136.856 110.764 136.72C110.773 136.236 110.845 135.753 110.845 135.27C110.873 130.785 109.414 126.856 106.362 123.61C104.388 121.504 102.268 119.544 100.185 117.539C98.1835 115.615 96.2272 113.673 94.6875 111.34C93.3561 109.325 92.3688 107.128 91.5356 104.867C91.4722 104.694 91.3091 104.557 91.1914 104.393C91.0918 104.594 90.8744 104.812 90.9016 104.995C91.0555 106.098 91.1642 107.228 91.4631 108.295C92.1967 110.893 93.6368 113.117 95.3214 115.178C97.8393 118.241 100.683 120.967 103.745 123.474C103.944 123.638 104.034 123.774 103.989 124.075C103.319 128.551 104.116 132.699 106.724 136.446C107.458 137.504 108.4 138.351 109.423 139.108C109.605 139.245 109.768 139.4 110.066 139.646C109.686 139.81 109.396 140.011 109.088 140.047C107.82 140.202 106.643 139.819 105.511 139.29C104.994 139.053 104.523 138.725 103.944 138.397C103.989 138.98 104.007 139.527 104.062 140.065C104.46 144.159 105.148 148.206 106.226 152.181C106.652 153.767 107.186 155.335 107.775 156.876C108.581 159 109.731 159.538 112.294 159.501C113.39 159.483 114.495 159.474 115.582 159.583C116.108 159.638 116.651 159.902 117.122 160.176C117.901 160.632 118.109 161.388 117.756 162.218C117.457 162.929 116.914 163.43 116.28 163.832C115.99 164.014 115.781 163.987 115.564 163.622C115.003 162.719 114.07 162.4 113.092 162.209C109.768 161.571 106.407 161.516 103.056 161.799C101.589 161.917 100.122 162.127 98.6816 162.4C98.0295 162.519 97.4136 162.865 96.8159 163.166C96.1275 163.513 95.6384 164.05 95.6203 164.898C94.8414 164.907 94.1984 164.67 93.8995 163.941C93.347 162.564 94.3433 161.908 95.3124 161.27C95.2037 161.179 95.1584 161.106 95.1131 161.106C94.1168 161.078 93.1477 161.17 92.3326 161.826C92.0971 162.017 91.8797 162.291 91.762 162.564C91.6261 162.893 91.4631 162.883 91.2095 162.765C90.5574 162.464 90.3219 161.361 90.7748 160.641C91.4359 159.592 92.4232 159.237 93.6097 159.328C93.8633 159.346 94.1169 159.328 94.3614 159.328C94.3886 159.283 94.4157 159.255 94.4157 159.237C94.1259 157.961 94.9229 157.441 95.9826 157.395C96.8521 157.35 97.7578 157.487 98.6092 157.696C99.7775 157.979 100.901 158.416 102.06 158.754C102.449 158.872 102.857 158.918 103.255 158.954C103.763 158.991 104.152 158.571 104.08 158.07C104.043 157.824 103.971 157.56 103.853 157.341C102.114 154.068 100.91 150.586 99.9134 147.021C99.0892 144.067 98.4914 141.068 98.0839 138.032C98.0658 137.905 98.0205 137.786 98.0476 137.786C97.4952 138.269 96.9608 138.771 96.3811 139.217C95.8105 139.646 95.1946 140.011 94.5063 140.466C94.5063 140.229 94.4791 140.129 94.5063 140.056C95.566 137.276 95.5298 134.45 94.8505 131.605C94.6603 130.794 94.3976 130.001 94.1259 129.217C94.0716 129.062 93.8451 128.889 93.6821 128.87C88.3837 128.187 83.2755 126.819 78.3303 124.777C74.9882 123.373 71.8726 121.632 69.1373 119.244C65.2156 115.834 62.8607 111.568 62.2992 106.371C61.8554 102.26 62.58 98.3398 64.3461 94.5748C66.3568 90.2627 69.4 86.8168 72.9685 83.7901C75.7581 81.4199 78.6292 79.1499 81.4278 76.807C82.8136 75.6401 84.1721 74.4368 85.2409 72.9417C85.8749 72.0574 86.3821 71.1093 86.4908 70.0062C86.7262 67.5995 85.105 65.7124 82.6868 65.5028C81.3554 65.3842 80.0874 65.7215 78.8013 65.9768C77.8684 66.1591 76.9355 66.3141 75.9936 66.4509C75.6947 66.4964 75.5316 66.6241 75.3686 66.8793C74.8071 67.8092 74.2002 68.7299 73.6025 69.6689ZM88.3384 118.605C88.3928 118.533 88.4471 118.45 88.5014 118.378C88.3565 118.305 88.2026 118.241 88.0667 118.15C87.7316 117.922 87.3965 117.685 87.0614 117.457C84.6974 115.843 82.5962 113.947 80.8482 111.668C79.6526 110.109 78.765 108.377 78.0495 106.545C76.7544 103.217 76.1385 99.7802 76.5823 96.2157C77.0351 92.6147 78.3393 89.3055 80.2504 86.2333C80.3772 86.0236 80.4225 85.7501 80.504 85.5131C80.2595 85.6134 79.9787 85.6681 79.7794 85.8231C77.9137 87.3728 76.4192 89.2326 75.1965 91.3385C72.9775 95.1309 72.2439 99.1694 73.0772 103.5C73.9648 108.094 76.3921 111.686 79.9968 114.558C82.3335 116.418 84.9782 117.648 87.7769 118.596C87.949 118.66 88.1482 118.605 88.3384 118.605ZM76.6728 64.6914C76.8721 64.664 77.0985 64.6458 77.3068 64.6002C78.3575 64.3906 79.4171 64.2082 80.3229 63.5792C80.6127 63.3786 80.9206 63.0687 80.7576 62.7132C80.6399 62.4579 80.2957 62.1935 80.024 62.1571C79.0911 62.0203 78.1491 61.9747 77.2525 61.8927C77.0532 62.8864 76.8721 63.7706 76.6728 64.6914ZM87.9761 60.4432C87.8131 60.3247 87.7497 60.2426 87.6772 60.2335C86.2553 59.9418 84.8242 59.6501 83.4023 59.3675C83.1396 59.3128 83.0219 59.4677 82.9766 59.7139C82.7864 60.6711 83.3932 61.3366 84.4257 61.1725C85.576 60.9902 86.7081 60.7076 87.9761 60.4432Z" fill="white"/>
<path d="M82.4806 163.807C82.6799 163.133 82.3357 162.814 81.8647 162.549C80.95 162.021 79.9446 161.838 78.9212 161.747C75.4342 161.419 71.9381 161.492 68.4511 161.765C67.4639 161.838 66.4857 162.057 65.5257 162.312C65.0004 162.449 64.5113 162.759 64.0584 163.069C63.5784 163.397 63.3429 163.88 63.5241 164.528C62.8267 164.646 62.238 164.491 61.7579 163.999C61.287 163.516 61.2688 162.959 61.5315 162.358C61.8304 161.665 62.3557 161.218 62.9897 160.863C63.1708 160.762 63.3339 160.644 63.5241 160.525C62.5006 159.796 59.9827 160.79 58.9412 162.285C58.3615 162.075 58.0536 161.647 57.9902 161.045C57.9177 160.37 58.1441 159.814 58.7057 159.441C59.385 158.994 60.1458 158.848 60.9428 158.83C61.4047 158.821 61.8757 158.83 62.238 158.83C62.3648 158.41 62.3829 157.936 62.6184 157.654C63.0893 157.098 63.8139 156.988 64.5113 156.915C65.5347 156.815 66.4586 157.18 67.4005 157.508C68.0979 157.754 68.7953 157.982 69.5199 158.128C70.6248 158.347 71.603 158.073 72.2551 157.089C72.9072 156.104 73.505 155.092 74.139 154.089C77.2728 149.139 79.9175 143.952 81.9191 138.437C82.218 137.625 82.4444 136.796 82.698 135.966C82.7161 135.911 82.707 135.847 82.7252 135.692C81.1039 136.978 79.5552 138.272 77.3633 138.318C78.9755 134.599 79.8178 130.742 80.0895 126.686C83.0603 128.099 86.0491 129.329 89.3006 129.73C89.5633 133.432 90.1792 136.96 92.2442 140.068C92.2261 140.114 92.217 140.16 92.1989 140.205C91.8185 140.132 91.42 140.105 91.0668 139.968C89.989 139.54 89.0561 138.883 88.1957 138.108C88.1051 138.026 88.0236 137.953 87.9421 137.88C87.7519 138.865 87.5979 139.85 87.3534 140.807C86.8462 142.803 85.7865 144.535 84.6 146.185C81.9644 149.878 79.3197 153.57 76.6841 157.262C76.5301 157.481 76.3852 157.727 76.2946 157.973C76.1225 158.492 76.3218 158.848 76.8561 158.948C77.1822 159.012 77.5173 159.012 77.8434 159.012C79.4103 159.012 80.9771 158.821 82.5168 159.249C82.7161 159.304 82.9244 159.368 83.1146 159.45C84.0928 159.851 84.5456 160.471 84.5094 161.346C84.4641 162.413 83.7667 163.452 82.8972 163.725C82.8067 163.771 82.6799 163.771 82.4806 163.807Z" fill="white"/>
<path d="M100.722 110.86C100.931 110.924 101.148 110.979 101.356 111.061C103.838 112.027 106.311 113.021 108.792 113.978C111.419 114.99 114.073 115.947 116.437 117.524C121.346 120.797 124.28 125.328 124.996 131.263C125.566 136.021 124.434 140.406 122.206 144.554C121.69 145.512 121.11 146.432 120.558 147.371C120.53 147.408 120.521 147.462 120.485 147.481C120.259 147.617 120.032 147.754 119.806 147.891C119.815 147.654 119.77 147.399 119.833 147.18C121.173 142.686 121.074 138.209 119.715 133.742C117.786 127.397 114.109 122.247 109.1 118.026C106.936 116.212 104.671 114.516 102.461 112.757C101.909 112.319 101.375 111.836 100.849 111.362C100.732 111.261 100.695 111.079 100.614 110.933C100.641 110.924 100.677 110.897 100.722 110.86Z" fill="white"/>
<path d="M112.752 84.5227C112.806 84.4133 112.852 84.2948 112.915 84.1854C113.685 82.9091 113.848 81.5781 113.214 80.2015C113.06 79.8642 113.096 79.691 113.44 79.4904C119.69 75.7527 125.559 71.5045 130.893 66.527C133.973 63.6553 136.817 60.5649 139.371 57.2101C139.434 57.128 139.489 57.0095 139.579 56.9731C139.733 56.9001 139.932 56.7998 140.059 56.8545C140.177 56.9001 140.313 57.1463 140.286 57.2739C140.114 58.0397 139.996 58.8328 139.688 59.5439C138.175 63.1084 136.011 66.2444 133.384 69.0705C128.466 74.3671 122.769 78.6609 116.637 82.4077C115.505 83.0914 114.346 83.7478 113.205 84.4224C113.087 84.4953 112.951 84.55 112.833 84.6047C112.806 84.5774 112.779 84.55 112.752 84.5227Z" fill="white"/>
<path d="M128.056 51.6641C127.992 53.0042 127.44 54.6725 126.606 56.2588C124.469 60.3155 121.697 63.8891 118.446 67.089C115.439 70.0427 112.133 72.6135 108.691 75.0384C105.784 77.0896 102.985 79.3049 100.132 81.4381C99.9875 81.5475 99.7883 81.6295 99.6071 81.6478C99.2811 81.6842 99.0818 81.4199 99.2267 81.119C99.3626 80.8273 99.5528 80.5356 99.7883 80.3077C101.817 78.4115 103.837 76.497 105.92 74.6555C108.918 72.0027 112.043 69.4866 114.977 66.7699C118.899 63.1416 122.159 58.9663 124.378 54.0435C125.203 52.2293 125.764 50.324 126.018 48.3458C126.081 47.8444 125.972 47.3156 125.991 46.8051C126 46.6228 126.135 46.4496 126.217 46.2764C126.371 46.3675 126.579 46.4222 126.688 46.5499C127.73 47.9264 128.155 49.4853 128.056 51.6641Z" fill="white"/>
<path d="M111.898 90.9445C113.085 89.5315 113.538 87.9543 113.058 86.1402C114.117 85.5841 115.177 85.0462 116.219 84.481C122.414 81.1171 128.02 76.96 132.938 71.8822C133.219 71.5905 133.482 71.2714 133.789 71.007C133.916 70.8976 134.152 70.8429 134.306 70.8794C134.396 70.8976 134.478 71.1711 134.46 71.3261C134.351 72.4292 133.953 73.4411 133.427 74.3983C131.888 77.1788 129.786 79.4852 127.468 81.6002C123.138 85.5385 118.139 88.3919 112.849 90.7622C112.587 90.8807 112.306 90.9719 112.025 91.0721C111.989 91.0265 111.944 90.9901 111.898 90.9445Z" fill="white"/>
<path d="M110.059 97.2976C110.186 97.1608 110.313 97.0241 110.449 96.8964C111.653 95.7751 112.242 94.3712 112.233 92.7303C112.233 92.3747 112.323 92.2198 112.677 92.0921C117.803 90.2597 122.585 87.7892 126.905 84.4253C127.847 83.696 128.735 82.8937 129.659 82.1462C129.813 82.0277 130.048 82.0186 130.247 81.9639C130.275 82.1735 130.347 82.3923 130.311 82.5929C130.03 83.8965 129.287 84.9723 128.518 86.0206C126.688 88.5003 124.387 90.4603 121.888 92.2198C118.591 94.5444 115.013 96.2583 111.101 97.2429C110.784 97.3249 110.467 97.3705 110.15 97.4343C110.113 97.3978 110.086 97.3431 110.059 97.2976Z" fill="white"/>
<path d="M106.365 104.23C107.253 103.464 108.159 102.78 108.937 101.987C109.753 101.148 110.033 100.063 109.925 98.9877C111.754 98.4772 113.538 98.0487 115.277 97.4835C118.366 96.4807 121.255 95.0221 123.99 93.2626C124.597 92.8706 125.159 92.4057 125.757 91.9955C125.901 91.8952 126.128 91.9316 126.318 91.9043C126.327 92.114 126.418 92.3875 126.327 92.5242C125.802 93.3264 125.286 94.1651 124.652 94.8762C121.626 98.2584 117.967 100.711 113.774 102.406C111.709 103.236 109.599 103.856 107.398 104.175C107.054 104.22 106.709 104.211 106.365 104.23Z" fill="white"/>
<path d="M142.023 48.3086C141.923 50.4327 141.334 52.3381 140.13 54.0793C137.195 58.3093 133.672 61.9923 129.877 65.4291C128.518 66.6507 127.115 67.8267 125.738 69.021C125.684 69.0666 125.629 69.1486 125.566 69.1577C125.358 69.1851 125.149 69.1851 124.941 69.1942C124.986 69.0027 124.959 68.7566 125.077 68.629C126.046 67.5441 127.015 66.4684 128.029 65.4291C132.259 61.0351 135.719 56.094 138.454 50.6242C139.342 48.8465 140.139 47.0415 140.818 45.1726C140.872 45.0176 141.026 44.9082 141.135 44.7715C141.262 44.9082 141.47 45.0267 141.497 45.1817C141.697 46.221 141.851 47.2694 142.023 48.3086Z" fill="white"/>
<path d="M113.952 105.938C112.703 105.811 111.226 105.656 109.741 105.51C109.696 105.501 109.65 105.51 109.605 105.492C109.451 105.419 109.297 105.328 109.143 105.246C109.297 105.182 109.442 105.1 109.605 105.063C110.058 104.972 110.529 104.908 110.982 104.817C114.215 104.161 117.195 102.866 120.075 101.28C120.256 101.18 120.501 101.171 120.709 101.125C120.664 101.362 120.682 101.663 120.546 101.836C119.695 103.012 118.825 104.17 117.928 105.3C117.775 105.492 117.458 105.638 117.204 105.665C116.208 105.783 115.202 105.838 113.952 105.938Z" fill="white"/>
</svg>
