<svg width="202" height="202" viewBox="0 0 202 202" fill="none" xmlns="http://www.w3.org/2000/svg">
<circle cx="101" cy="101" r="101" fill="#7BB5DD"/>
<path d="M138.214 93.1839L159.665 85.7627C159.665 85.7627 157.835 94.7088 158.343 101.622C158.953 110.568 164.138 117.379 164.138 117.379L137.706 126.528L138.214 93.1839Z" fill="white"/>
<path d="M164.14 117.38C164.14 117.38 159.464 110.671 158.65 102.843C158.04 96.9467 158.65 91.8637 159.667 85.7641C158.752 89.8305 155.295 101.318 145.637 111.992C141.774 116.262 140.046 120.024 139.334 122.667L138.928 72.1416C138.928 72.1416 133.845 73.9715 133.336 74.0732C132.726 74.2765 132.421 74.6831 132.421 74.7848C132.421 75.0898 132.218 75.2931 131.811 75.3947C131.405 75.4964 128.457 76.6146 126.423 77.2246C126.017 77.3263 126.22 77.7329 126.423 77.7329C128.863 77.6313 132.32 77.3263 132.625 77.3263C133.133 77.2246 133.336 77.0213 133.336 76.7163C133.336 76.7163 133.336 76.7163 133.336 76.6147C133.438 76.208 133.743 75.903 134.15 75.903C134.455 75.903 136.285 75.6997 137.403 75.4964L136.895 129.885H139.334V126.021L164.14 117.38Z" fill="white"/>
<path d="M69.1047 127.948C69.1047 127.948 65.1398 125 64.0216 119.409C62.9033 113.716 65.7498 110.463 65.7498 110.463L91.7754 101.517C91.7754 101.517 90.1489 106.701 91.6738 112.598C93.6054 120.019 97.5702 125 97.5702 125C97.5702 125 88.0139 123.17 78.7626 124.39C70.0196 125.508 69.1047 127.948 69.1047 127.948Z" fill="white"/>
<path d="M39.2168 121.45C39.2168 121.45 42.47 112.605 51.9246 102.948C59.1427 95.628 63.8191 93.4932 63.8191 93.4932C63.8191 93.4932 59.651 99.4911 57.9227 109.352C56.8044 115.452 58.0244 123.178 58.0244 123.178C58.0244 123.178 53.1446 122.161 47.5531 121.551C42.8766 121.043 39.2168 121.45 39.2168 121.45Z" fill="white"/>
<path d="M63.8161 93.4932C63.8161 93.4932 59.7496 99.4911 58.0214 109.352C56.9031 115.452 58.123 123.178 58.123 123.178C58.123 123.178 56.9031 122.873 54.0565 122.263C42.467 119.62 63.8161 93.4932 63.8161 93.4932Z" fill="white"/>
<path d="M79.0617 100.612L78.8584 77.2305C78.3501 77.4338 73.7753 78.9587 73.267 79.162C72.657 79.3653 72.352 79.772 72.352 79.9753C72.352 80.2803 72.1487 80.4836 71.742 80.5853C71.3354 80.6869 68.3872 81.7035 66.3539 82.4151C65.9473 82.5168 66.1506 82.9234 66.3539 82.9234C68.6922 82.8218 72.2504 82.5168 72.5553 82.5168C73.0637 82.4151 73.267 82.2118 73.3686 81.9068C73.3686 81.9068 73.3686 81.9068 73.3686 81.8052C73.4703 81.3985 73.7753 81.0936 74.1819 81.0936C74.4869 81.0936 76.2152 80.8902 77.4351 80.7886L77.2318 100.714H79.0617V100.612Z" fill="white"/>
<path d="M109.355 79.4669H111.185V57C111.185 57 106.101 58.8299 105.593 58.9315C104.983 59.1349 104.678 59.5415 104.678 59.6432C104.678 59.9481 104.475 60.1515 104.068 60.2531C103.662 60.3548 100.713 61.3714 98.6801 62.083C98.2734 62.1847 98.4768 62.5913 98.6801 62.5913C101.12 62.4897 104.577 62.1847 104.882 62.1847C105.39 62.083 105.593 61.8797 105.695 61.5747C105.796 61.1681 106.101 60.8631 106.508 60.8631C106.813 60.8631 108.44 60.6598 109.66 60.5581L109.355 79.4669Z" fill="white"/>
<path d="M104.778 62.295H104.88C105.388 62.1934 105.592 61.99 105.592 61.6851C105.592 61.3801 105.795 61.1768 106.1 61.0751L105.49 59.1436C104.88 59.3469 104.677 59.7535 104.677 59.8552C104.677 60.1602 104.473 60.2618 104.168 60.3635L104.778 62.295Z" fill="white"/>
<path d="M72.4552 82.4024H72.5568C73.0652 82.3008 73.2685 82.0975 73.2685 81.7925C73.3701 81.4875 73.4718 81.2842 73.7768 81.1825L73.1668 79.251C72.5568 79.4543 72.3535 79.8609 72.3535 79.9626C72.3535 80.2676 72.1502 80.3692 71.8452 80.4709L72.4552 82.4024Z" fill="white"/>
<path d="M132.422 77.3302H132.524C133.032 77.2285 133.235 77.0252 133.235 76.7202C133.337 76.4152 133.439 76.2119 133.744 76.1103L133.134 74.1787C132.524 74.382 132.32 74.7887 132.32 74.8903C132.32 75.1953 132.117 75.297 131.812 75.3986L132.422 77.3302Z" fill="white"/>
<path d="M97.569 125C97.569 125 93.4008 118.9 91.7742 112.394C90.3509 106.803 91.7742 101.517 91.7742 101.517C91.7742 101.517 89.0293 111.073 82.4212 116.257C77.8464 119.917 66.5619 123.272 69.2051 127.948C69.6118 127.338 70.7301 126.118 75.3049 125C75.8132 124.898 76.4232 124.797 77.0331 124.695V132.421H79.473V124.39C87.911 123.475 97.569 125 97.569 125Z" fill="white"/>
<path d="M66.3558 108.843C66.3558 108.843 63.306 107.013 63.7126 101.117C64.1193 95.0172 67.1691 92.374 67.1691 92.1707L87.4 85.2578C87.4 85.2578 85.8751 88.3076 86.9933 92.8823C88.2133 98.372 91.7715 101.523 91.7715 101.523C91.7715 101.523 81.6052 101.625 72.4556 104.777C67.9824 106.301 66.3558 108.843 66.3558 108.843Z" fill="white"/>
<path d="M78.3492 96.1354C84.144 91.3574 87.2955 85.2578 87.2955 85.2578C87.2955 85.2578 86.4823 89.1209 87.0922 92.5773C88.2105 98.4736 91.667 101.523 91.667 101.523C91.667 101.523 83.4324 101.625 74.5877 104.167C68.6913 105.793 66.8614 108.131 66.3531 108.945C64.4215 104.472 72.4528 101.015 78.3492 96.1354Z" fill="white"/>
<path d="M101.427 129.475C101.427 129.475 95.8354 125.307 94.5138 117.479C93.3955 111.277 97.5637 106.804 97.5637 106.804L129.181 95.9268C129.181 95.9268 127.452 102.941 129.079 109.651C130.909 117.174 137.822 126.526 137.822 126.526C137.822 126.526 124.708 122.765 113.321 124.188C102.444 125.612 101.427 129.475 101.427 129.475Z" fill="white"/>
<path d="M95.0167 79.3745C94.8134 74.5965 98.1682 70.7334 98.2699 70.5301L120.941 62.6006C120.941 62.6006 119.416 66.1587 119.822 69.2085C120.534 75.0031 123.787 78.0529 123.787 78.0529C123.787 78.0529 114.841 77.5446 104.37 81.2044C98.5749 83.2376 97.9649 85.9824 97.9649 85.9824C97.9649 85.9824 95.22 85.2708 95.0167 79.3745Z" fill="white"/>
<path d="M112.914 73.2699C116.98 69.7118 120.945 62.6973 120.945 62.6973C120.945 62.6973 119.42 66.2554 119.827 69.3052C120.539 75.0998 123.792 78.1496 123.792 78.1496C123.792 78.1496 114.134 78.048 104.883 81.3011C100.918 82.7243 98.3762 84.8592 98.0712 86.0791C96.7496 81.6061 107.323 78.1496 112.914 73.2699Z" fill="white"/>
<path d="M98.2703 105.481C98.2703 105.481 95.0171 101.72 94.4071 95.8237C93.7971 89.7241 97.3553 87.2843 97.6603 87.081L123.889 78.0332C123.889 78.0332 123.178 79.9648 123.788 85.2511C124.398 89.7241 128.769 95.8237 128.769 95.8237C128.769 95.8237 114.74 96.2304 106.098 99.5852C100.609 101.72 98.2703 105.481 98.2703 105.481Z" fill="white"/>
<path d="M115.652 90.333C121.345 85.4533 123.887 78.1338 123.887 78.1338C123.887 78.1338 123.175 82.3018 123.887 85.555C125.208 91.2479 129.275 96.026 129.275 96.026C129.275 96.026 117.075 96.2293 108.23 99.1774C102.436 101.109 98.8775 104.565 98.3692 105.582C97.0476 100.601 109.959 95.2127 115.652 90.333Z" fill="white"/>
<path d="M138.327 127.031C138.327 127.031 131.211 117.78 129.076 109.647C127.754 104.259 128.771 98.1593 129.177 96.0244C128.364 98.8709 125.518 108.122 118.503 114.628C111.793 120.83 98.577 123.778 101.424 129.572C101.932 128.657 103.457 126.421 108.845 125.099L108.743 132.52H111.285V124.591C122.976 122.761 138.327 127.031 138.327 127.031Z" fill="white"/>
<path d="M38 124.283L38.4066 123.063C55.6443 130.869 99.5247 132.007 119.31 131.601C121.262 132.577 126.086 130.652 128.254 129.568C129.555 129.893 150.479 127.264 160.778 125.909C161.429 126.885 158.068 132.007 156.306 134.447C152.729 137.374 154.816 141.358 156.306 142.984L150.615 144.61C149.314 144.61 142.213 142.713 138.825 141.764C136.223 139.813 129.338 139.325 126.222 139.325C123.62 141.602 112.128 141.358 106.707 140.951C106.057 140.626 98.8471 139.461 95.3237 138.919C93.3722 138.268 92.3423 139.19 92.0713 139.732C90.1198 142.334 80.4168 141.629 75.8092 140.951C68.3287 138.024 64.8324 140.816 64.0193 142.577H62.7996C62.7996 141.358 55.4817 133.227 54.6686 132.007C54.0181 131.032 43.2852 126.451 38 124.283Z" fill="white" stroke="white"/>
</svg>
