<svg width="202" height="202" viewBox="0 0 202 202" fill="none" xmlns="http://www.w3.org/2000/svg">
<rect width="202" height="202" rx="101" fill="#BB141B"/>
<path d="M129.463 92.6659V87.7571C129.463 87.7571 128.153 85.7392 124.907 85.7392C121.67 85.7392 119.734 86.7106 119.734 87.5225C119.734 88.8506 122.631 92.6659 129.463 92.6659ZM103.898 49.2147L108.798 40.6924L112.638 49.2147H118.999C115.173 52.7906 113.609 58.2015 113.609 61.8103V65.7429C113.609 67.4136 112.765 70.1777 112.765 70.1777C112.765 70.1777 118.287 74.3684 119.135 75.0958C119.489 75.3727 119.875 75.5416 119.621 76.269C119.182 77.4938 115.432 79.1786 115.05 79.4977C114.202 80.2485 113.981 80.6991 114.202 81.4405C114.471 82.1538 115.173 82.2853 116.61 81.7784C118.061 81.3138 121.067 79.7417 123.588 78.667C126.099 77.5783 129.463 77.8552 129.463 77.8552V73.045H119.965V57.7604L118.287 55.0666L122.476 47.6331L126.688 55.1136L125.029 57.7604V65.7429H129.868V57.7604L128.2 55.1136L132.403 47.6895L136.587 55.1136L134.933 57.7604V65.7429H139.805V57.7604L138.08 55.1136L142.297 47.6895L146.5 55.1136L144.823 57.7604L144.903 73.0216H135.329V80.0796C137.501 82.1116 139.55 86.7106 139.55 89.4184C139.55 92.1919 137.736 93.3651 137.736 93.3651C138.344 95.5426 138.226 96.4483 137.967 98.4193C137.736 100.423 135.225 103.549 135.225 103.549V140.026C135.225 142.504 129.463 142.26 129.463 140.144V104.37C126.203 100.817 117.326 98.0251 117.326 98.0251C114.07 101.268 112.068 106.899 112.068 106.899C113.481 107.885 115.682 106.899 116.511 105.942C117.326 104.985 118.999 104.736 119.964 105.341C120.912 105.942 121.147 106.172 120.822 107.58C120.45 109.063 119.856 111.433 119.856 113.089C119.856 114.788 121.774 114.408 123.206 114.535C126.099 114.788 126.575 118.007 126.335 119.805C126.099 121.611 125.251 125.445 125.251 127.829C125.251 130.19 125.378 132.574 125.614 133.926C125.863 135.23 126.335 136.671 126.203 138.356C126.057 140.622 124.657 140.984 123.206 139.529C121.774 138.097 101.717 116.801 101.717 116.801C100.383 121.133 105.933 128.519 107.724 130.8C109.528 133.081 109.411 134.756 107.832 136.319C106.287 137.863 103.276 138.689 102.687 140.144C102.075 141.551 104.124 145.888 108.341 151.266C112.544 156.634 103.516 160.238 98.1312 161.313C92.7082 162.374 92.7081 158.666 93.0851 156.634C93.4431 154.621 93.4432 153.396 93.3112 151.627C93.1934 149.825 91.535 147.328 89.231 144.339C86.9554 141.336 86.9553 138.604 87.9024 131.645C88.8588 124.704 88.6327 120.274 88.6327 120.274C88.6327 120.274 86.2298 120.373 82.7432 120.274C79.2755 120.143 76.3967 118.139 76.1517 109.757C75.9115 101.399 75.7135 81.4405 75.1435 79.3475C74.5875 77.278 72.3401 76.8979 71.3931 76.621C70.4083 76.3769 70.3612 74.9644 71.313 74.4575C73.8196 73.2421 76.8255 70.1777 75.7136 68.2724C74.5876 66.3624 70.1728 66.7566 67.2187 68.1973C64.2551 69.6239 61.1313 72.7588 60.3257 73.6129C59.5483 74.4576 58.8745 74.4576 58.9593 73.5471C59.0583 72.571 58.4128 68.0049 58.0312 66.4234C57.6071 64.8278 56.1748 61.8103 55.6895 61.0125C55.2136 60.21 55.6895 59.9003 56.4999 60.21C57.2773 60.5292 59.0583 61.2659 60.7309 61.7071C62.4176 62.2139 64.0242 61.388 64.7922 59.8205C65.5932 58.2015 67.1574 54.7898 67.9584 53.2646C68.7452 51.7582 70.0174 52.0961 71.0633 52.326C72.0999 52.57 73.061 53.2083 74.0174 53.5884C74.9692 53.9826 75.7654 53.9075 76.1047 53.4242C76.4298 52.9643 76.8255 52.7906 77.4003 51.5986C77.961 50.4067 78.6583 50.9745 78.7478 51.4485C81.6125 68.6056 89.0756 69.394 89.0756 69.394C87.9542 72.2519 85.3252 76.8087 84.7032 77.9584C84.0295 79.0331 83.7798 80.563 83.6149 81.7503C83.4877 82.9329 84.0295 94.2661 84.8258 98.4193C85.6361 102.577 88.1851 100.958 89.0143 99.6864C89.7823 98.4193 92.2841 93.1445 92.2841 93.1445C92.2841 93.1445 92.9014 91.7085 92.9014 90.5165C92.9014 89.3152 90.8283 86.7106 90.3524 85.8988C89.8577 85.0728 88.1097 83.4913 88.1097 79.4977C88.1097 75.5181 91.7093 72.7588 93.005 71.7123C94.2866 70.6658 94.2866 69.2156 94.1122 68.3428C93.5516 65.2643 90.2676 58.7881 88.6892 56.3056C87.0732 53.8324 83.9541 49.1349 83.9541 49.1349H90.4372L94.6117 40.5L99.1536 49.1724L103.898 49.2147ZM102.847 75.3727C104.963 71.8906 105.849 68.2724 105.849 68.2724H99.7331C99.7331 68.2724 100.713 71.975 102.847 75.3727ZM96.4775 57.8167C96.7225 59.5999 98.0558 60.2804 99.0688 59.7595C100.077 59.2057 99.9028 57.7604 99.1536 56.6059C98.4374 55.4749 96.9486 54.2126 96.4915 54.4003C96.0251 54.5927 96.3172 56.7655 96.4775 57.8167ZM108.6 54.4003C108.162 54.2126 106.593 55.4749 105.849 56.6059C105.133 57.7604 104.949 59.2057 105.967 59.7595C106.961 60.2804 108.242 59.5859 108.563 57.8167C108.737 56.7655 109.081 54.5927 108.6 54.4003Z" fill="white"/>
</svg>
