<svg width="202" height="202" viewBox="0 0 202 202" fill="none" xmlns="http://www.w3.org/2000/svg">
<rect width="202" height="202" rx="101" fill="#000A3C"/>
<g clip-path="url(#clip0_873_11223)">
<path d="M95.439 166C83.6175 166 74 156.477 74 144.771C74 137.335 77.9722 130.402 84.3955 126.572C84.7791 124.091 86.5223 123.743 88.2112 123.406C89.8944 123.07 91.9892 122.652 94.3059 120.359C96.0913 118.584 98.7351 113.036 98.7351 106.768V106.161C98.4579 99.7407 93.7807 96.3604 88.3906 92.4653C82.2254 88.01 75.2378 82.9605 75.2378 72.1746C75.2378 69.4912 75.7612 67.0429 76.838 64.69C78.015 62.1121 79.6568 60.0583 81.2445 58.072C83.6645 55.0446 85.7544 52.4299 85.7544 48.623C85.7544 40.7048 78.4014 40.379 78.0884 40.369L76.324 40.3127L77.4525 38.9685C77.5541 38.8471 80.0193 36 86.5419 36C89.7677 36 92.1691 36.8265 93.883 38.5265C95.957 40.5838 96.9611 43.8882 96.9527 48.6286C96.9527 52.0185 96.6336 54.9866 96.3521 57.6053C96.0279 60.6206 95.748 63.2249 96.0053 65.7293C96.4141 69.7129 98.1647 72.9733 101.859 76.6314C102.468 77.2331 104.326 79.0669 106.546 79.0669C107.231 79.0669 107.663 77.8476 108.311 75.8583C109.724 71.5163 112.09 64.2489 123.16 60.8001L123.802 60.6001L124.155 61.1682C124.195 61.2335 125.157 62.8054 126.102 66.0788L126.302 66.7692L125.649 67.0825C124.808 67.4866 124.077 67.8938 123.53 68.2379C124.317 68.1354 125.194 67.9467 125.663 67.8306L126.524 67.6174L126.715 68.4754C127.568 72.3004 128 76.6106 128 81.2867V82.1414H127.137C122.283 82.1414 117.913 83.7088 114.148 86.8C111.07 89.3278 108.462 92.9007 106.806 96.8607C104.601 102.131 104.655 106.637 105.98 107.949L106.505 108.469L106.064 109.061C106.046 109.086 104.347 111.377 102.814 114.21C103.12 114.257 103.521 114.293 104.03 114.293C105.78 114.293 108.874 113.345 109.99 112.24C110.222 112.014 110.512 111.892 110.811 111.892C111.212 111.892 111.579 112.111 111.769 112.463C111.976 112.845 111.942 113.305 111.68 113.693C109.226 117.369 106.056 117.947 103.741 118.369C101.402 118.795 100.334 118.989 100.334 121.448C100.334 123.907 101.374 124.307 101.959 124.543C108.762 126.691 114.017 132.021 116.019 138.808L116.036 138.864C116.108 139.109 116.174 139.354 116.236 139.601L116.278 139.771C116.332 139.993 116.384 140.214 116.43 140.438L116.468 140.624C116.506 140.814 116.541 141.004 116.574 141.195C116.574 141.195 116.606 141.382 116.619 141.464C116.652 141.676 116.683 141.889 116.71 142.104C116.719 142.175 116.742 142.382 116.742 142.382C116.761 142.544 116.777 142.707 116.792 142.87C116.792 142.87 116.81 143.065 116.814 143.122C116.832 143.349 116.845 143.577 116.855 143.806C116.855 143.806 116.86 143.883 116.861 143.91C116.862 143.934 116.863 144.019 116.863 144.019C116.872 144.27 116.878 144.52 116.878 144.771L116.878 144.797C116.878 144.923 116.876 145.061 116.873 145.199C116.873 145.199 116.868 145.389 116.866 145.465C116.8 147.649 116.403 149.778 115.684 151.79L115.639 151.917L115.625 151.935C114.825 154.143 113.667 156.194 112.179 158.033C112.05 158.193 111.928 158.338 111.805 158.483L111.759 158.537C111.64 158.675 111.521 158.81 111.4 158.944L111.358 158.99C111.223 159.139 111.086 159.285 110.946 159.43L110.93 159.446C110.808 159.573 110.68 159.701 110.552 159.828L110.392 159.983C110.311 160.061 110.23 160.138 110.148 160.214C110.082 160.276 110.015 160.338 109.947 160.4C109.878 160.463 109.809 160.525 109.739 160.587C109.664 160.654 109.588 160.721 109.511 160.787C109.465 160.827 109.332 160.939 109.332 160.939C109.017 161.204 108.689 161.465 108.358 161.713L108.244 161.799C108.14 161.876 108.035 161.951 107.93 162.026L107.793 162.122C107.688 162.196 107.581 162.269 107.474 162.342L107.346 162.427C107.232 162.502 107.119 162.577 107.004 162.65L106.946 162.686C106.562 162.928 106.164 163.161 105.762 163.381L105.617 163.459C105.509 163.517 105.4 163.574 105.29 163.63C105.23 163.661 105.169 163.692 105.107 163.723C105.003 163.775 104.898 163.827 104.792 163.878C104.739 163.904 104.545 163.994 104.545 163.994C104.457 164.036 104.368 164.077 104.28 164.117C104.208 164.149 104.136 164.18 104.064 164.211L104.006 164.236C103.864 164.297 103.722 164.357 103.578 164.415C103.464 164.462 103.357 164.505 103.249 164.547C103.189 164.57 103.022 164.632 103.022 164.632C102.91 164.674 102.797 164.716 102.684 164.756C102.612 164.782 102.542 164.806 102.471 164.83C102.344 164.874 102.216 164.916 102.088 164.958L101.916 165.013C101.738 165.069 101.56 165.122 101.38 165.174L101.351 165.182C100.96 165.293 100.548 165.397 100.13 165.489L100.071 165.502C98.5552 165.833 96.9966 166 95.4391 166L95.439 166Z" fill="#000A3C"/>
<path d="M93.7443 57.3397C93.4703 59.8673 93.22 62.2089 93.2955 64.5036C93.2955 64.5036 86.2484 63.6853 86.2484 58.4336C86.2484 55.0258 88.3867 54.1947 88.3867 48.6268V48.6225C88.3867 47.4816 88.2595 46.4688 88.0372 45.5372C88.0372 45.5372 89.8928 45.439 89.8928 43.2062C89.8928 41.3688 88.6499 40.121 88.3242 40.121C88.0609 40.121 87.9854 40.4073 87.4093 40.4073C85.9938 40.4073 85.8945 38.6211 85.8945 38.6211H86.5462C90.5897 38.6211 94.3334 39.8368 94.3334 48.6374C94.3334 51.8935 94.0227 54.7821 93.7443 57.3396V57.3397Z" fill="#000A3C"/>
<path d="M81.061 138.839C80.8625 138.281 80.5367 137.931 80.1591 137.856L80.144 137.867C79.8721 137.816 79.3197 137.816 78.7674 138.414C77.8892 139.343 77.4878 140.619 77.5547 142.17C77.5676 142.567 77.6302 142.792 77.7425 143.114C77.941 143.685 78.4308 144.054 78.7954 144.121C79.2204 144.195 79.6973 143.948 80.144 143.424C81.1214 142.283 81.5465 140.174 81.061 138.839V138.839ZM112.005 149.12C111.616 148.439 110.98 147.966 110.253 147.793L109.465 147.635C108.738 147.486 107.648 147.274 106.023 146.868C103.848 146.321 101.969 147.317 100.931 149.532C101.993 149.84 103.046 150.124 104.06 150.372C104.222 149.592 104.258 149.037 104.258 149.037C104.282 148.691 104.571 148.428 104.925 148.451C105.275 148.475 105.538 148.761 105.514 149.107C105.514 149.159 105.478 149.774 105.279 150.667C105.478 150.718 105.68 150.765 105.879 150.804C106.075 150.855 106.293 150.887 106.477 150.938C106.651 150.069 106.766 149.325 106.779 149.317C106.83 148.981 107.156 148.746 107.493 148.798C107.832 148.849 108.067 149.171 108.015 149.503C108.015 149.565 107.888 150.308 107.704 151.19C108.121 151.276 108.516 151.34 108.893 151.402C109.031 150.658 109.068 150.05 109.068 150.037C109.083 149.691 109.381 149.43 109.72 149.451C110.069 149.466 110.332 149.761 110.311 150.097C110.311 150.148 110.272 150.78 110.121 151.584C110.984 151.695 111.711 151.757 112.311 151.793L112.331 151.784C112.581 150.532 112.307 149.652 112.005 149.12L112.005 149.12ZM109.823 152.793C109.687 153.242 109.512 153.686 109.286 154.071C109.115 154.366 108.736 154.47 108.436 154.304C108.138 154.135 108.032 153.759 108.2 153.462C108.352 153.201 108.474 152.906 108.578 152.592C108.19 152.532 107.803 152.458 107.411 152.383C107.275 152.902 107.124 153.387 106.973 153.748C106.837 154.056 106.459 154.205 106.146 154.071C105.836 153.934 105.685 153.56 105.821 153.252C105.948 152.953 106.071 152.556 106.185 152.127C105.987 152.088 105.784 152.037 105.585 151.99C105.372 151.939 105.16 151.892 104.949 151.84C104.83 152.216 104.692 152.584 104.532 152.943C104.396 153.253 104.032 153.402 103.721 153.28C103.408 153.146 103.257 152.785 103.38 152.477C103.512 152.178 103.626 151.872 103.721 151.56C102.638 151.291 101.561 150.998 100.493 150.682C100.228 151.823 100.454 152.714 100.728 153.299H100.737C101.225 154.342 102.079 154.949 102.716 155.158C103.542 155.445 105.717 155.893 107.521 156.09C109.512 156.314 111.051 155.21 111.938 153.005C111.273 152.966 110.561 152.891 109.823 152.793H109.823ZM115.988 143.941C115.901 141.745 115.455 139.576 114.661 137.521H114.656C113.718 135.066 110.55 133.318 106.384 132.389C98.6699 130.664 88.546 133.515 82.1139 138.886C82.3642 139.867 82.2886 141.031 81.9521 142.095C86.5976 144.563 93.3426 147.242 99.7143 149.163C101.214 145.755 104.084 145.11 106.321 145.653C107.922 146.05 108.951 146.259 109.715 146.409L110.542 146.582C111.603 146.83 112.542 147.526 113.094 148.503C113.496 149.199 113.858 150.289 113.61 151.789C114.398 151.737 114.775 151.616 114.859 151.505C115.701 149.148 116.102 146.597 115.988 143.941ZM113.265 153.032C111.787 157.323 108.671 157.468 107.383 157.331L107.398 157.327C105.657 157.141 103.328 156.682 102.314 156.338C101.177 155.953 100.176 155.009 99.6107 153.823C99.3842 153.327 99.1705 152.682 99.1339 151.887C99.1101 151.415 99.1576 150.896 99.2936 150.327C92.9068 148.404 86.1489 145.727 81.458 143.236C81.2962 143.535 81.1084 143.822 80.8948 144.067C80.5452 144.488 80.1439 144.787 79.7296 144.96C80.1677 148.84 81.5335 152.635 83.6998 155.944C86.563 160.333 90.4815 163.343 94.7019 164.286C96.2015 164.623 98.1563 165.044 99.9062 164.659C106.401 163.234 111.698 158.786 114.279 152.934C113.977 152.985 113.627 153.019 113.265 153.032L113.265 153.032ZM75.9688 138.175C76.1565 138.422 76.6571 138.805 77.2181 139.202H77.2332C77.4446 138.717 77.71 138.288 78.0207 137.914C78.271 137.615 78.545 137.38 78.832 137.207C79.5979 133.675 81.1968 130.538 83.5293 128.158C80.0511 130.613 77.369 134.109 75.9687 138.174L75.9688 138.175ZM76.8318 140.403C76.3355 140.044 75.8997 139.711 75.5912 139.427C75.0518 141.386 74.8015 143.456 74.8878 145.601C74.9007 146.035 74.9396 146.456 74.9763 146.877C75.2892 145.61 75.9019 144.298 76.7801 142.945C76.6183 142.153 76.6421 141.26 76.8319 140.403L76.8318 140.403ZM78.489 145.069H78.4825C78.0359 144.956 77.6345 144.672 77.3324 144.264C75.8027 146.605 75.1553 148.699 75.7184 150.573C78.0725 158.459 85.0915 164.273 93.5066 165.048C85.4691 162.632 79.5268 154.342 78.489 145.069V145.069Z" fill="white"/>
<path d="M102.362 125.598C101.309 125.229 99.4599 124.803 99.4599 121.447C99.4599 115.176 106.393 120.045 110.952 113.217C111.178 112.881 110.853 112.586 110.589 112.843C109.211 114.208 105.821 115.146 104.019 115.146C102.218 115.146 101.555 114.736 101.555 114.736C103.245 111.39 105.359 108.553 105.359 108.553C101.115 104.35 108.253 81.2857 127.126 81.2857C127.126 75.9293 126.552 71.7566 125.862 68.6586C125.413 68.7696 121.855 69.6029 121.695 68.8551C121.557 68.1949 124.31 66.7698 125.262 66.3126C124.338 63.1141 123.408 61.6143 123.408 61.6143C107.223 66.6566 110.475 79.9205 106.535 79.9205C103.967 79.9205 101.952 77.9399 101.238 77.2348C97.0433 73.0813 95.5178 69.5367 95.1358 65.8148C94.6374 60.9648 96.0787 55.8156 96.0787 48.626C96.0938 40.0605 92.7235 36.8535 86.5309 36.8535C80.3383 36.8535 78.1052 39.5135 78.1052 39.5135C78.1052 39.5135 86.6065 39.7848 86.6065 48.6217C86.6065 55.3434 80.5239 58.6658 77.6132 65.0413C76.694 67.0497 76.0898 69.3593 76.0898 72.1732C76.0898 91.7186 99.6002 91.349 99.6002 106.766H99.5873C99.5873 113.661 96.6182 119.259 94.9051 120.962C89.5993 126.214 85.204 122.387 85.1673 127.669C82.7507 129.827 81.0224 133.121 80.1744 136.867C80.2262 136.867 80.2736 136.879 80.3341 136.89C80.8347 136.978 81.2598 137.262 81.5855 137.706C88.3306 132.267 98.722 129.401 106.656 131.173C109.187 131.743 111.325 132.66 112.939 134.076C110.499 130.173 106.77 127.158 102.362 125.598ZM88.3866 48.626V48.6217C88.3866 47.4808 88.2593 46.4681 88.037 45.5365C88.037 45.5365 89.8927 45.4382 89.8927 43.2055C89.8927 41.368 88.6498 40.1203 88.324 40.1203C88.0608 40.1203 87.9852 40.4065 87.4091 40.4065C85.9936 40.4065 85.8944 38.6204 85.8944 38.6204H86.5461C90.5896 38.6204 94.3332 39.8361 94.3332 48.6366C94.3332 51.8928 94.0225 54.7814 93.7441 57.3389C93.4701 59.8664 93.2198 62.2081 93.2953 64.5028C93.2953 64.5028 86.2483 63.6845 86.2483 58.4328C86.2483 55.0249 88.3866 54.1938 88.3866 48.6259V48.626Z" fill="white"/>
</g>
<defs>
<clipPath id="clip0_873_11223">
<rect width="54" height="130" fill="white" transform="translate(74 36)"/>
</clipPath>
</defs>
</svg>
